<?xml version="1.0" standalone="no"?>
<!DOCTYPE svg PUBLIC "-//W3C//DTD SVG 20010904//EN"
 "http://www.w3.org/TR/2001/REC-SVG-20010904/DTD/svg10.dtd">
<svg version="1.0" xmlns="http://www.w3.org/2000/svg"
 width="1254.000000pt" height="1254.000000pt" viewBox="0 0 1254.000000 1254.000000"
 preserveAspectRatio="xMidYMid meet">

<g transform="translate(0.000000,1254.000000) scale(0.100000,-0.100000)"
fill="#000000" stroke="none">
<path d="M5270 10943 c-264 -25 -435 -57 -597 -108 -350 -111 -603 -263 -829
-497 -188 -195 -311 -426 -353 -662 -16 -87 -13 -301 4 -393 69 -362 313 -678
743 -961 245 -161 406 -245 1482 -775 1393 -686 2043 -1154 2457 -1768 179
-267 299 -561 356 -874 32 -175 31 -526 -1 -703 -116 -634 -489 -1178 -1012
-1477 -640 -365 -1368 -349 -2206 50 -123 58 -334 172 -334 180 0 2 29 46 64
99 329 492 544 1137 637 1917 30 250 37 726 15 983 -49 563 -194 1089 -424
1539 -92 180 -137 244 -162 228 -12 -9 -11 -19 9 -73 229 -616 337 -1138 360
-1745 32 -854 -117 -1662 -430 -2321 -88 -186 -268 -492 -290 -492 -5 0 -73
39 -151 86 -366 219 -608 306 -858 306 -249 0 -453 -80 -610 -241 -322 -330
-216 -836 216 -1032 252 -114 556 -100 849 40 195 93 330 195 514 388 l121
126 175 -106 c480 -289 900 -452 1350 -524 138 -22 552 -25 690 -5 852 123
1551 638 1890 1391 155 346 227 681 228 1066 1 417 -85 772 -278 1143 -272
523 -736 975 -1465 1429 -365 228 -665 389 -1620 873 -388 196 -754 385 -815
420 -565 323 -818 574 -921 916 -22 75 -27 108 -27 209 1 252 99 473 302 676
154 154 333 262 556 338 220 73 391 97 655 88 190 -6 319 -24 475 -63 724
-182 1252 -642 1519 -1322 76 -194 149 -487 171 -689 6 -53 10 -63 26 -63 12
0 21 9 25 26 12 46 -3 454 -20 554 -41 238 -104 437 -206 648 -114 235 -237
409 -402 569 -361 348 -837 549 -1428 602 -106 10 -368 12 -450 4z m-1395
-7684 c156 -21 337 -100 606 -265 l139 -86 -40 -48 c-57 -68 -189 -186 -285
-255 -298 -213 -632 -260 -868 -122 -57 34 -129 112 -164 178 -25 48 -28 64
-28 149 0 86 3 101 32 162 43 91 84 140 162 193 128 87 275 118 446 94z"/>
</g>
</svg>
