<?xml version="1.0" standalone="no"?>
<!DOCTYPE svg PUBLIC "-//W3C//DTD SVG 20010904//EN"
 "http://www.w3.org/TR/2001/REC-SVG-20010904/DTD/svg10.dtd">
<svg version="1.0" xmlns="http://www.w3.org/2000/svg"
 width="1537.000000pt" height="1023.000000pt" viewBox="0 0 1537.000000 1023.000000"
 preserveAspectRatio="xMidYMid meet">

<g transform="translate(0.000000,1023.000000) scale(0.100000,-0.100000)"
fill="#000000" stroke="none">
<path d="M3765 8424 c-93 -10 -264 -47 -359 -78 -376 -124 -658 -387 -740
-691 -28 -103 -31 -246 -8 -356 76 -367 354 -655 997 -1034 83 -49 160 -94
171 -101 49 -29 183 -699 219 -1096 71 -789 -30 -1490 -294 -2045 -40 -82
-129 -242 -146 -261 -1 -1 -54 34 -116 78 -202 145 -348 200 -524 200 -164 0
-272 -40 -381 -142 -74 -70 -110 -136 -122 -225 -19 -137 23 -256 122 -351 34
-33 84 -71 112 -85 187 -95 436 -80 652 40 73 40 229 167 261 212 12 17 27 31
34 31 6 0 36 -20 66 -44 227 -178 472 -288 751 -338 122 -21 412 -16 540 11
216 45 398 120 575 236 127 83 331 289 418 420 293 445 363 1013 187 1530
-165 486 -497 916 -1070 1386 -281 230 -562 424 -1020 701 -497 301 -654 412
-796 561 -110 115 -180 225 -217 342 -33 105 -30 252 7 360 87 251 319 424
649 481 71 13 130 15 257 11 257 -9 417 -50 645 -163 445 -220 757 -635 860
-1145 14 -70 25 -139 25 -155 0 -20 3 -25 11 -17 15 15 15 287 0 388 -51 337
-191 628 -415 863 -229 239 -521 390 -888 458 -80 15 -380 26 -463 18z m148
-2310 c67 -35 338 -202 482 -297 332 -221 582 -422 820 -661 426 -426 627
-816 665 -1283 32 -401 -131 -847 -409 -1123 -432 -428 -1064 -499 -1598 -180
-48 29 -98 61 -110 70 l-21 16 52 81 c134 206 264 538 341 872 36 157 73 432
87 639 34 510 -67 1146 -264 1672 -28 74 -59 152 -68 173 -21 42 -20 43 23 21z
m-831 -3223 c118 -30 255 -108 404 -230 l29 -23 -82 -77 c-146 -136 -276 -199
-428 -208 -75 -4 -100 -2 -153 16 -141 48 -213 132 -211 248 1 105 52 190 142
242 93 53 180 62 299 32z"/>
<path d="M6850 6705 c-94 -31 -155 -57 -155 -65 0 -7 22 -18 50 -25 92 -24 85
34 85 -734 0 -380 -4 -682 -9 -690 -5 -8 -35 -20 -68 -26 -40 -8 -59 -17 -61
-28 -3 -16 18 -17 248 -17 233 0 251 1 248 17 -2 13 -18 20 -53 26 -88 14 -85
-1 -85 397 l0 348 40 35 c77 70 184 103 276 86 78 -15 114 -41 150 -109 17
-32 19 -66 22 -375 4 -388 8 -367 -83 -382 -35 -6 -51 -14 -53 -26 -3 -16 15
-17 253 -17 238 0 256 1 253 17 -2 13 -18 20 -58 26 -30 4 -62 14 -70 23 -13
12 -16 72 -20 382 l-5 367 -26 55 c-47 99 -119 151 -233 170 -126 20 -281 -32
-384 -130 -29 -27 -54 -50 -57 -50 -3 0 -5 176 -5 390 l0 390 -22 -1 c-13 -1
-93 -25 -178 -54z"/>
<path d="M10714 6736 c-80 -30 -123 -57 -172 -110 -87 -94 -132 -227 -132
-393 l0 -93 -79 0 c-86 0 -91 -4 -91 -61 l0 -29 85 0 85 0 0 -407 c0 -308 -3
-414 -13 -433 -14 -27 -63 -49 -114 -49 -26 -1 -33 -5 -33 -21 0 -20 7 -20
280 -20 267 0 280 1 280 19 0 16 -11 19 -70 25 -44 5 -77 14 -92 26 l-23 18 0
419 0 418 153 3 152 3 0 44 0 45 -157 0 -156 0 6 163 c7 180 23 261 65 321 41
59 74 79 131 80 60 1 87 -20 102 -78 22 -87 28 -96 69 -96 31 0 44 7 74 40 95
105 2 191 -203 189 -64 0 -102 -6 -147 -23z"/>
<path d="M12290 6135 c-52 -19 -128 -44 -167 -55 -82 -24 -96 -45 -35 -55 60
-10 89 -25 101 -51 17 -39 15 -754 -2 -779 -8 -10 -38 -23 -72 -30 -41 -8 -59
-16 -61 -28 -2 -16 20 -17 262 -17 230 0 264 2 264 15 0 18 -8 21 -73 30 -91
12 -87 -4 -87 390 l0 345 37 41 c85 94 167 94 249 0 20 -23 23 -24 53 -12 68
29 103 102 77 164 -19 46 -62 68 -133 68 -78 0 -147 -36 -222 -116 l-60 -65
-3 92 c-2 73 -6 93 -18 95 -8 1 -58 -14 -110 -32z"/>
<path d="M6063 6145 c-69 -19 -115 -43 -188 -98 -98 -75 -154 -159 -185 -282
-64 -249 36 -503 238 -608 87 -45 157 -61 262 -60 147 1 261 52 360 160 65 71
74 87 55 103 -11 9 -22 4 -57 -30 -24 -22 -68 -53 -98 -68 -50 -24 -66 -27
-165 -27 -125 0 -168 15 -248 85 -177 156 -179 558 -4 716 49 43 121 74 176
74 96 0 166 -58 214 -175 31 -77 34 -80 68 -83 27 -2 40 3 64 28 24 25 29 41
33 91 4 55 2 63 -23 89 -31 32 -96 63 -181 85 -73 19 -250 19 -321 0z"/>
<path d="M8347 6145 c-202 -51 -318 -196 -228 -286 34 -33 74 -38 111 -12 37
26 47 42 59 101 23 115 61 152 153 152 75 0 119 -15 155 -52 51 -52 66 -100
71 -225 4 -111 4 -112 -19 -117 -13 -3 -71 -15 -129 -26 -280 -55 -407 -114
-464 -213 -32 -56 -39 -107 -26 -172 15 -70 54 -123 118 -158 137 -75 304 -51
458 67 68 51 74 53 74 31 0 -31 41 -96 73 -116 26 -16 45 -19 99 -17 61 3 73
8 137 52 61 42 69 50 60 67 -12 22 -16 23 -49 4 -34 -19 -75 -19 -91 2 -11 12
-15 89 -20 357 -4 289 -8 348 -22 387 -26 69 -70 114 -145 151 -63 31 -72 33
-192 35 -83 2 -145 -3 -183 -12z m323 -660 l0 -165 -50 -39 c-71 -56 -125 -74
-204 -69 -105 6 -166 67 -166 165 0 90 41 148 140 199 35 18 230 73 263 74 15
0 17 -14 17 -165z"/>
<path d="M9527 6150 c-114 -29 -223 -107 -290 -207 -58 -87 -87 -175 -94 -283
-15 -222 91 -421 269 -507 89 -43 145 -55 253 -55 111 0 197 25 284 83 58 39
151 146 151 174 0 31 -24 24 -71 -20 -131 -123 -326 -140 -472 -42 -110 75
-180 214 -181 362 l-1 70 364 3 364 2 -5 73 c-9 139 -84 249 -215 314 -73 36
-79 37 -197 40 -66 1 -138 -2 -159 -7z m199 -59 c82 -37 130 -121 142 -243 l5
-58 -248 0 -248 0 6 38 c10 72 49 156 96 205 72 74 163 96 247 58z"/>
<path d="M11370 6153 c-96 -20 -227 -104 -284 -181 -85 -117 -124 -250 -113
-397 23 -312 281 -519 592 -476 84 12 180 52 239 100 45 36 126 137 126 157 0
30 -25 23 -68 -19 -26 -25 -74 -59 -107 -74 -53 -25 -71 -28 -160 -28 -93 0
-105 2 -166 32 -143 71 -229 228 -229 421 l0 42 366 0 367 0 -6 63 c-13 158
-105 283 -250 340 -39 15 -80 21 -167 23 -63 1 -126 0 -140 -3z m185 -62 c81
-37 129 -118 141 -234 l7 -67 -247 0 -246 0 0 25 c0 13 10 55 22 91 51 157
200 242 323 185z"/>
<path d="M8764 4397 c-60 -54 -57 -152 5 -196 87 -61 198 -8 209 98 4 49 3 53
-36 91 -36 36 -44 40 -91 40 -44 0 -56 -5 -87 -33z"/>
<path d="M7025 3994 c-11 -2 -40 -10 -65 -16 -151 -37 -285 -167 -341 -329
-29 -87 -36 -223 -15 -312 35 -148 130 -275 254 -340 92 -48 158 -61 286 -55
96 4 112 8 179 41 104 51 229 182 213 223 -5 13 -14 9 -49 -23 -58 -53 -102
-78 -171 -98 -124 -36 -264 -3 -359 84 -79 73 -137 215 -137 334 0 48 3 55 23
61 12 3 174 6 361 6 l338 0 -4 68 c-9 151 -104 276 -252 331 -57 21 -215 36
-261 25z m151 -70 c76 -36 134 -141 134 -241 l0 -51 -92 -7 c-51 -3 -160 -5
-243 -3 l-150 3 3 35 c11 103 72 208 146 251 60 34 146 40 202 13z"/>
<path d="M7965 3985 c-141 -36 -231 -131 -242 -254 -7 -72 9 -129 50 -183 45
-60 104 -96 261 -163 158 -67 212 -102 233 -153 20 -48 13 -120 -16 -161 -56
-78 -187 -100 -293 -48 -71 35 -141 110 -180 192 -48 103 -58 90 -58 -74 l0
-140 53 -15 c141 -41 191 -48 312 -43 157 5 217 27 297 107 68 68 94 138 85
230 -12 133 -88 206 -308 295 -139 57 -177 76 -212 109 -107 99 -23 255 139
256 111 0 207 -70 255 -186 16 -39 28 -54 42 -54 18 0 19 7 13 121 -3 67 -6
123 -8 124 -2 2 -41 13 -87 25 -110 28 -257 34 -336 15z"/>
<path d="M8768 3946 c-117 -38 -158 -55 -158 -67 0 -12 12 -18 46 -22 29 -3
54 -13 68 -26 21 -21 21 -29 24 -379 2 -238 0 -369 -8 -394 -11 -39 -12 -40
-95 -56 -26 -5 -41 -14 -43 -25 -3 -16 17 -17 252 -17 244 0 256 1 256 19 0
15 -10 20 -54 25 -97 13 -91 -22 -94 522 -3 439 -4 474 -20 473 -9 -1 -88 -24
-174 -53z"/>
<path d="M9528 3984 c-209 -50 -340 -242 -293 -426 8 -34 24 -76 35 -94 24
-38 91 -100 126 -116 13 -6 24 -14 24 -18 0 -3 -29 -27 -64 -53 -36 -26 -74
-63 -85 -81 -27 -43 -28 -120 -2 -162 21 -34 80 -84 99 -84 21 0 12 -17 -15
-29 -95 -43 -173 -143 -173 -221 0 -57 44 -134 97 -169 177 -118 515 -121 727
-8 129 68 198 170 204 297 3 66 0 81 -25 130 -17 33 -45 68 -71 87 -77 58
-119 66 -402 72 -278 7 -302 12 -316 65 -11 46 65 144 104 132 10 -4 50 -10
88 -15 148 -18 289 25 388 119 121 114 137 279 42 418 l-35 50 112 -2 111 -1
8 50 c4 27 5 51 3 53 -2 2 -74 -3 -160 -11 -154 -14 -157 -14 -247 9 -102 27
-193 30 -280 8z m195 -55 c104 -53 157 -214 127 -387 -21 -125 -92 -202 -188
-202 -60 0 -102 20 -145 70 -54 64 -72 125 -71 250 1 140 31 213 109 261 34
22 133 26 168 8z m232 -1032 c88 -39 125 -107 104 -190 -33 -133 -220 -217
-421 -188 -151 21 -250 87 -278 186 -21 76 8 163 69 202 27 16 48 18 258 13
188 -5 235 -9 268 -23z"/>
<path d="M10481 3946 c-182 -61 -196 -74 -98 -91 21 -3 47 -15 58 -26 18 -18
19 -36 19 -404 l0 -385 -22 -14 c-13 -8 -44 -18 -70 -21 -38 -6 -48 -11 -48
-26 0 -18 12 -19 243 -19 134 0 246 3 250 6 15 15 -9 33 -54 39 -81 11 -79 -1
-79 396 l0 347 41 37 c66 59 121 80 216 80 74 0 85 -3 124 -30 26 -18 53 -50
68 -80 l26 -49 3 -324 c4 -378 6 -366 -83 -377 -45 -6 -55 -11 -55 -26 0 -18
12 -19 251 -19 231 0 250 1 247 17 -2 11 -17 20 -43 25 -83 16 -84 17 -94 56
-7 22 -11 168 -11 363 0 375 -4 398 -77 479 -95 106 -271 128 -428 54 -28 -13
-80 -48 -118 -79 l-67 -55 0 90 c0 87 -1 90 -22 89 -13 -1 -92 -25 -177 -53z"/>
<path d="M11929 3990 c-104 -18 -201 -85 -241 -164 -51 -100 -26 -238 56 -314
51 -47 98 -72 246 -132 184 -75 225 -114 225 -213 0 -75 -25 -116 -88 -149
-68 -35 -156 -31 -240 10 -77 38 -127 94 -172 191 -45 97 -55 83 -55 -78 l0
-140 53 -15 c141 -41 191 -48 312 -43 156 5 217 27 296 106 118 118 120 290 5
402 -40 39 -135 89 -261 138 -103 40 -180 85 -201 116 -48 73 -18 177 64 216
36 18 56 21 112 17 111 -8 180 -62 241 -190 38 -80 49 -64 49 72 l0 120 -27
11 c-94 36 -285 56 -374 39z"/>
</g>
</svg>
